<mxfile host="app.diagrams.net" modified="2023-10-09T23:55:40.474Z" agent="Mozilla/5.0 (Windows NT 10.0; Win64; x64; rv:109.0) Gecko/20100101 Firefox/120.0" version="22.0.4" etag="B9R9Ky2p5Jp14Ox9IPee" type="github">
  <diagram name="Page-1" id="eZUyN89Ulf4tcjOL0NN1">
    <mxGraphModel>
      <root>
        <mxCell id="0" />
        <mxCell id="1" parent="0" />
      </root>
    </mxGraphModel>
  </diagram>
</mxfile>
